<?xml version="1.0" encoding="UTF-8"?>
<svg width="142px" height="142px" viewBox="0 0 142 142" version="1.1" xmlns="http://www.w3.org/2000/svg" xmlns:xlink="http://www.w3.org/1999/xlink">
    <title>orderla-logo</title>
    <defs>
        <linearGradient x1="94.2120395%" y1="100%" x2="12.2111171%" y2="1.03216047e-14%" id="linearGradient-1">
            <stop stop-color="#72E898" offset="0%"></stop>
            <stop stop-color="#3ECC5F" offset="100%"></stop>
        </linearGradient>
    </defs>
    <g id="orderla-logo" stroke="none" stroke-width="1" fill="none" fill-rule="evenodd">
        <path d="M58.4846977,0 L83.5153023,3.49178385e-15 C103.438639,-2.08047646e-15 110.971155,2.13498906 118.467451,6.14405219 C125.963747,10.1531153 131.846885,16.0362525 135.855948,23.5325488 C139.865011,31.0288451 142,38.561361 142,58.4846977 L142,83.5153023 C142,103.438639 139.865011,110.971155 135.855948,118.467451 C131.846885,125.963747 125.963747,131.846885 118.467451,135.855948 C110.971155,139.865011 103.438639,142 83.5153023,142 L58.4846977,142 C38.561361,142 31.0288451,139.865011 23.5325488,135.855948 C16.0362525,131.846885 10.1531153,125.963747 6.14405219,118.467451 C2.13498906,110.971155 0,103.438639 0,83.5153023 L0,58.4846977 C0,38.561361 2.13498906,31.0288451 6.14405219,23.5325488 C10.1531153,16.0362525 16.0362525,10.1531153 23.5325488,6.14405219 C31.0288451,2.13498906 38.561361,0 58.4846977,0 Z" id="Rectangle" fill="url(#linearGradient-1)"></path>
        <path d="M39.1660509,52.324708 C41.7046169,46.2496151 50.7997482,30.8652499 68.6970754,29.1673803 C73.6094783,28.7013543 76.9156991,29.3548886 78.9651851,31.29385 C82.0815234,34.2410097 82.8451867,39.9724317 78.957879,45.8445449 C75.6994861,50.7569561 69.0860939,55.7216989 59.14095,58.6684663 C57.3846279,59.1893078 55.5380296,59.7066844 53.5687177,60.106305 C51.2164521,60.5887452 48.6812176,60.6684299 46.0959433,60.3383682 C45.2802785,64.9396629 45.3946273,69.7532123 46.2491517,74.3750783 C49.2232691,90.372958 63.9171447,103.595409 80.6657797,99.5926057 C88.7334045,97.570593 97.8915863,92.4141955 98.7912991,72.4058242 C99.3250741,60.5354032 91.4278396,43.5891427 83.5057665,34.5428094 C83.1593531,34.264482 83.1097848,33.7639108 83.3953135,33.4246557 C83.6739215,33.0848447 84.1795984,33.034598 84.5260117,33.3129254 C95.09935,40.0486911 106.74554,56.2293289 107.799226,70.4104552 C109.144436,82.968659 104.025545,104.840124 83.4318071,109.199501 C61.8374113,113.851444 39.9140928,97.6331501 36.5110592,75.9843695 C35.5544776,69.8866214 35.8036012,63.6118656 37.3541327,57.6927733 C35.5656174,56.8203251 33.8146503,55.7445587 32.1431655,54.4637944 C29.743789,52.6292379 27.5690509,50.348315 25.6305246,47.7349028 C20.3999399,40.6622445 17.0684235,30.9853201 18.2317961,19.1606057 C18.2733955,18.4824767 18.8592505,17.9635338 19.5527172,18.0019603 C20.2391235,18.0415538 20.7696446,18.6236625 20.7280452,19.3017914 C20.5520831,30.1274513 24.1602393,38.7229922 29.4399978,44.769823 C31.2742583,46.8700679 33.3558091,48.5876029 35.46312,50.0756333 C36.675273,50.9257657 37.9093266,51.6785916 39.1660509,52.324708 Z M47.4429204,54.9456723 C49.1167171,55.1204464 50.7612248,55.0590531 52.3159189,54.7370939 C54.536638,54.2562426 56.5982312,53.6825713 58.4772967,52.9625215 C63.8135018,50.9149562 67.6418316,47.9389547 70.2967539,45.0401274 C72.3109832,42.8391819 73.5400044,40.6407122 73.8926012,38.710281 C74.0546148,37.8346711 74.1479004,37.0348404 73.5787922,36.6040597 C72.8398826,36.0411574 71.6509802,36.1378845 70.0957733,36.4661049 C64.4669819,37.6752836 59.8247063,39.8170294 56.1774779,42.7023286 C51.9733585,46.0256538 49.1317203,50.271409 47.4429204,54.9456723 Z" id="Shape" fill="#F9F9F9"></path>
    </g>
</svg>